<?xml version="1.0" standalone="no"?>
<!DOCTYPE svg PUBLIC "-//W3C//DTD SVG 20010904//EN"
 "http://www.w3.org/TR/2001/REC-SVG-20010904/DTD/svg10.dtd">
<svg version="1.0" xmlns="http://www.w3.org/2000/svg"
 width="359.000000pt" height="359.000000pt" viewBox="0 0 359.000000 359.000000"
 preserveAspectRatio="xMidYMid meet">
<metadata>
Created by potrace 1.11, written by Peter Selinger 2001-2013
</metadata>
<g transform="translate(0.000000,359.000000) scale(0.100000,-0.100000)"
fill="#000000" stroke="none">
<path d="M443 2847 c7 -18 245 -565 266 -612 10 -22 80 -182 156 -355 75 -173
138 -316 139 -318 3 -2 169 -39 221 -48 17 -3 129 -25 250 -49 121 -24 231
-46 245 -48 14 -3 36 -8 50 -11 14 -3 36 -8 50 -10 14 -3 50 -10 80 -16 30 -6
66 -13 80 -15 14 -3 34 -7 45 -9 182 -38 337 -67 344 -64 4 2 -61 154 -146
338 -135 294 -154 340 -149 374 6 49 44 82 104 92 23 3 43 9 43 13 6 29 4 113
-3 117 -16 10 -87 -17 -117 -45 -31 -29 -33 -27 -34 17 0 12 -5 22 -11 23 -6
0 -32 1 -58 1 l-46 0 -73 160 c-75 163 -77 166 -106 173 -10 2 -306 70 -658
150 -352 81 -648 148 -658 151 -12 2 -17 -1 -14 -9z"/>
<path d="M270 2676 c0 -3 18 -47 41 -98 46 -103 62 -141 64 -148 0 -3 10 -25
22 -50 11 -25 24 -55 28 -68 3 -12 11 -20 16 -17 5 3 6 -1 3 -10 -4 -8 -2 -21
3 -28 5 -6 29 -57 53 -112 23 -55 55 -128 71 -163 16 -35 29 -65 29 -67 0 -3
12 -30 26 -62 15 -32 32 -71 39 -88 7 -16 22 -50 33 -75 11 -25 32 -73 46
-107 14 -35 37 -86 50 -115 13 -29 27 -63 30 -75 5 -16 18 -23 49 -29 23 -4
44 -8 47 -9 29 -6 90 -18 110 -22 14 -2 79 -15 145 -28 66 -14 131 -27 145
-29 123 -23 435 -88 442 -92 4 -3 8 1 8 8 0 9 3 10 8 2 6 -9 139 -39 352 -79
14 -3 38 -7 53 -11 25 -5 27 -4 19 13 -6 10 -18 35 -27 56 -9 20 -19 37 -23
38 -29 2 -69 10 -147 27 -49 11 -103 23 -120 25 -16 3 -106 22 -200 41 -93 20
-179 38 -190 41 -11 2 -45 9 -75 15 -30 6 -66 13 -80 15 -14 3 -79 16 -145 30
-66 14 -148 31 -183 37 -74 13 -61 -7 -177 263 -73 170 -92 213 -136 311 -10
22 -27 64 -39 93 -11 29 -28 67 -37 84 -10 18 -18 34 -18 37 -3 9 -18 45 -40
95 -12 28 -44 102 -71 165 -64 153 -67 156 -117 165 -53 10 -60 11 -86 20 -11
3 -21 4 -21 1z"/>
<path d="M135 2451 c8 -16 23 -32 32 -34 17 -4 17 -5 0 -6 -10 0 -15 -6 -12
-11 4 -6 10 -8 15 -5 4 3 6 -3 4 -12 -3 -10 1 -27 9 -37 14 -19 15 -19 15 7 0
15 -4 24 -8 22 -5 -3 -6 5 -2 17 5 21 5 21 14 -2 5 -13 14 -31 21 -39 7 -8 7
-12 2 -9 -6 4 -17 -3 -24 -14 -12 -19 -11 -20 6 -13 10 4 24 8 31 8 6 0 12 4
12 9 0 4 5 8 11 8 8 0 8 -5 -1 -15 -7 -8 -16 -13 -20 -10 -4 2 -15 -1 -25 -8
-16 -12 -15 -14 8 -30 19 -12 27 -13 31 -4 2 6 4 1 3 -12 -1 -13 3 -26 9 -28
7 -2 10 7 8 26 -4 36 11 48 34 28 9 -8 24 -12 32 -9 11 3 12 2 4 -8 -9 -9 -17
-8 -37 4 -24 16 -24 16 -24 -9 0 -20 2 -23 13 -14 10 8 14 8 14 0 0 -6 -5 -11
-11 -11 -5 0 -8 -4 -5 -9 6 -10 -21 -8 -46 3 -10 5 -16 12 -13 16 3 5 1 11 -5
15 -16 10 -12 -22 6 -39 8 -9 13 -20 10 -25 -4 -5 -1 -15 6 -23 7 -7 13 -17
14 -23 1 -23 27 -75 36 -75 6 0 8 -6 5 -14 -3 -8 1 -22 8 -33 8 -10 15 -26 15
-35 0 -10 4 -18 10 -18 5 0 7 6 4 14 -3 8 -1 17 5 20 6 4 8 13 5 20 -8 20 14
30 33 14 13 -10 17 -10 20 0 3 6 9 12 14 12 5 0 4 -9 -3 -19 -11 -18 -13 -18
-37 -3 -23 16 -25 16 -18 0 3 -10 2 -20 -3 -23 -6 -4 -10 -11 -10 -17 0 -6 9
-3 20 7 11 10 20 15 20 11 0 -4 -10 -16 -22 -26 -13 -10 -19 -22 -14 -27 5 -4
11 -2 13 5 3 6 9 12 14 12 5 0 4 -9 -3 -19 -7 -11 -15 -18 -19 -15 -4 2 1 -14
12 -35 10 -22 19 -45 19 -50 0 -6 9 -15 20 -21 11 -6 20 -16 20 -23 0 -7 -4
-6 -10 3 -16 25 -11 3 9 -43 11 -23 22 -52 26 -64 3 -13 13 -23 21 -23 8 0 14
-5 14 -11 0 -5 4 -8 9 -4 6 3 20 -8 32 -25 13 -16 28 -30 35 -30 20 0 37 -27
23 -36 -7 -4 -9 -3 -6 3 4 6 -5 15 -19 22 -21 9 -30 9 -42 -1 -13 -12 -14 -11
-2 9 12 18 12 24 0 37 -7 9 -15 14 -18 11 -3 -3 -11 0 -19 7 -13 10 -6 -9 40
-114 l11 -26 45 30 c24 17 41 26 37 19 -7 -11 26 -68 48 -83 6 -4 8 -10 4 -13
-4 -4 -19 12 -34 34 -30 46 -41 49 -72 21 -25 -24 -21 -41 13 -57 22 -10 27
-8 35 8 7 11 7 19 1 19 -5 0 -12 -6 -14 -12 -4 -10 -6 -10 -6 -1 -1 18 19 27
32 14 7 -7 5 -16 -8 -31 -13 -14 -22 -17 -29 -10 -5 5 -17 10 -25 10 -11 0
-10 -4 5 -16 10 -8 13 -12 5 -9 -9 5 -8 -1 4 -19 10 -14 22 -26 29 -26 6 0 6
-4 -3 -9 -8 -5 -9 -11 -3 -15 6 -3 18 4 27 16 l16 23 19 -25 c17 -22 21 -24
42 -12 14 8 11 2 -9 -15 -26 -23 -30 -31 -22 -46 10 -17 12 -17 37 2 l27 19 2
-26 c1 -16 -2 -20 -7 -12 -5 7 -15 10 -25 6 -14 -5 -15 -9 -5 -21 7 -8 9 -15
4 -14 -5 0 -20 13 -32 30 -19 23 -22 32 -12 44 9 11 9 19 -3 35 -14 20 -14 20
-31 1 -10 -11 -15 -25 -11 -30 3 -6 8 -19 10 -28 5 -26 34 -93 40 -93 3 0 17
7 31 17 23 15 26 15 42 0 9 -10 11 -17 5 -17 -6 0 -13 5 -15 12 -3 7 -13 5
-31 -7 -21 -13 -26 -23 -21 -39 8 -27 7 -26 40 -31 31 -4 52 -9 97 -20 17 -5
27 -3 27 4 0 6 -8 8 -17 4 -14 -5 -15 -3 -6 7 14 15 33 5 33 -18 0 -15 2 -15
10 -2 8 12 10 12 10 1 0 -11 3 -11 15 -1 8 7 15 9 15 4 0 -5 4 -3 9 4 7 11 9
11 14 -1 4 -11 0 -15 -14 -12 -10 2 -19 0 -19 -4 0 -11 49 -11 56 0 7 12 24
11 24 -2 0 -5 -4 -7 -10 -4 -5 3 -10 1 -10 -5 0 -7 12 -9 29 -7 17 3 31 1 33
-3 2 -5 28 -11 58 -15 30 -3 57 -10 58 -16 3 -6 9 -6 17 1 8 7 15 7 19 1 3 -5
16 -7 29 -4 18 4 20 3 7 -7 -13 -10 -12 -11 3 -6 10 3 28 1 40 -5 13 -6 8 2
-13 21 -32 28 -32 30 -5 13 27 -17 50 -22 100 -23 16 -1 17 -3 5 -10 -8 -5
-22 -5 -33 2 -10 5 -21 7 -25 4 -9 -10 4 -16 39 -19 19 -1 38 -6 42 -12 5 -5
6 1 3 15 -6 25 -6 25 5 3 7 -13 17 -23 23 -23 6 0 21 -3 33 -6 16 -5 25 1 37
23 9 16 15 21 16 13 0 -9 -5 -21 -12 -28 -6 -6 -9 -15 -5 -19 9 -9 37 28 34
46 -1 7 -18 22 -37 32 -19 11 -29 19 -21 19 7 0 26 -9 42 -20 23 -17 32 -19
50 -10 11 7 23 9 26 6 3 -3 -3 -9 -13 -12 -19 -7 -53 -43 -54 -56 0 -15 60
-19 87 -5 22 12 64 16 81 8 1 0 -2 -10 -8 -21 -6 -11 -7 -20 -3 -21 4 0 20 -3
35 -5 14 -2 29 0 33 5 3 6 13 7 23 4 16 -7 16 -6 0 19 -12 19 -14 28 -6 36 14
14 8 21 -21 27 -12 2 -21 -1 -21 -8 0 -7 -5 -4 -11 6 -15 26 -54 21 -74 -9 -9
-14 -19 -23 -22 -20 -3 3 2 12 11 21 9 9 16 21 16 27 0 6 -2 9 -6 6 -3 -3 -25
0 -50 8 -25 7 -42 9 -39 4 4 -6 1 -10 -4 -10 -6 0 -11 4 -11 9 0 4 -34 15 -75
23 -41 8 -72 11 -69 6 3 -4 1 -8 -4 -8 -6 0 -12 6 -15 13 -4 11 -34 18 -94 21
-13 1 -23 4 -23 7 0 6 -10 8 -57 12 -18 1 -33 6 -34 12 0 5 -4 1 -9 -10 -7
-17 -9 -17 -9 -2 -1 9 -9 17 -18 17 -10 0 -29 3 -42 7 -14 3 -22 2 -18 -3 3
-5 -1 -17 -8 -27 -13 -17 -14 -17 -20 3 -4 12 -4 24 -1 27 3 4 6 -1 6 -11 0
-9 4 -15 10 -11 20 13 -3 37 -31 33 -16 -3 -29 -1 -29 4 0 5 -5 6 -10 3 -6 -3
-10 -2 -10 2 0 9 -36 16 -77 15 -13 0 -23 4 -23 10 0 5 -4 7 -9 3 -5 -3 -15 1
-23 8 -7 7 -21 16 -30 20 -10 3 -18 12 -18 19 0 9 3 9 10 -2 5 -8 12 -12 15
-8 3 3 -1 13 -10 21 -8 9 -14 20 -13 24 3 12 -25 83 -33 83 -4 0 -11 -4 -14
-10 -3 -5 -14 -10 -23 -10 -12 1 -8 6 11 16 32 17 34 29 7 44 -15 8 -21 6 -30
-10 -6 -12 -7 -20 -1 -20 5 0 12 6 14 13 4 9 6 9 6 0 1 -18 -19 -27 -32 -14
-12 12 19 54 34 45 5 -3 9 -1 9 5 0 5 -4 12 -9 15 -4 3 -11 19 -14 36 -4 16
-12 30 -18 30 -8 0 -8 -4 1 -15 7 -9 10 -18 7 -21 -3 -3 -11 5 -19 18 -14 26
-19 60 -7 53 4 -3 2 8 -4 25 -10 27 -12 28 -29 13 -11 -10 -18 -12 -18 -5 0 7
4 12 9 12 11 0 24 31 16 38 -3 3 -12 -4 -21 -16 -8 -12 -23 -22 -32 -22 -12 1
-10 5 8 15 14 8 21 15 15 15 -5 0 -3 5 7 10 15 9 15 13 -3 50 -10 21 -19 44
-19 50 0 5 -4 10 -10 10 -5 0 -10 12 -10 26 0 21 -4 25 -20 21 -10 -3 -24 1
-31 9 -8 10 -8 14 0 14 6 0 11 -4 11 -10 0 -5 7 -7 15 -4 14 6 13 8 -2 21 -10
8 -12 12 -5 8 10 -5 10 -1 0 19 -6 14 -15 26 -20 26 -5 0 -6 5 -2 12 4 6 -1
17 -11 25 -14 10 -15 13 -4 14 8 0 6 4 -6 9 -33 14 -36 11 -19 -15 9 -14 21
-22 27 -18 6 3 7 1 3 -6 -4 -6 -12 -9 -17 -6 -11 8 -51 -19 -42 -28 3 -4 1 -7
-5 -7 -19 0 -14 18 8 30 24 13 25 28 4 51 -15 17 -14 18 17 14 21 -3 29 -1 21
4 -8 4 -13 10 -11 12 6 10 -26 77 -34 72 -5 -3 -6 4 -2 16 4 12 2 21 -4 21 -6
0 -11 9 -11 20 0 27 -14 25 -34 -5 -16 -24 -16 -26 9 -37 28 -12 32 -23 13
-34 -7 -4 -10 -4 -6 1 4 4 -4 17 -18 27 l-25 20 26 34 c24 31 23 48 -1 24 -7
-7 -17 -4 -31 9 -11 11 -23 18 -25 16 -2 -2 -4 5 -5 15 -1 17 3 15 26 -11 16
-17 31 -26 35 -21 3 6 3 12 -1 15 -5 2 -2 2 5 1 6 -2 12 0 12 4 -1 11 -26 42
-35 42 -4 0 -2 -7 5 -15 9 -10 9 -15 1 -15 -6 0 -11 5 -11 11 0 5 -5 7 -11 3
-6 -3 -4 5 6 19 15 24 15 28 -6 69 -13 24 -22 46 -21 50 1 5 -3 7 -9 5 -6 -1
-14 4 -17 12 -3 9 0 11 8 6 10 -6 11 -4 4 6 -8 13 -10 18 -13 38 -2 19 -36 22
-49 4 -13 -16 -13 -16 -7 7 4 14 4 22 0 18 -4 -3 -20 -2 -36 4 -22 7 -33 7
-44 -2 -13 -11 -14 -10 -9 4 4 11 1 16 -10 16 -15 0 -15 -3 -1 -29z m55 -2 c0
-6 7 -8 16 -5 14 5 15 4 4 -9 -7 -9 -13 -14 -14 -13 -1 2 -8 11 -15 21 -9 11
-10 17 -2 17 6 0 11 -5 11 -11z m68 -31 c-16 -28 -17 -50 -3 -61 6 -5 4 -7 -5
-4 -8 2 -14 10 -12 16 1 6 -3 11 -9 11 -5 0 -7 5 -4 10 3 6 1 10 -4 10 -6 0
-11 5 -11 11 0 8 4 8 14 0 12 -10 17 -8 26 8 6 12 13 21 16 21 2 0 -1 -10 -8
-22z m16 -33 c-4 -8 -8 -15 -10 -15 -2 0 -4 7 -4 15 0 8 4 15 10 15 5 0 7 -7
4 -15z m34 -50 c15 -14 22 -25 17 -25 -6 0 -3 -5 5 -11 10 -7 11 -9 2 -7 -8 2
-13 7 -13 11 1 4 -11 19 -26 32 -16 13 -24 25 -20 25 4 0 20 -11 35 -25z m-36
-31 c-12 -8 -30 -13 -40 -11 -13 4 -12 5 5 6 12 0 25 6 28 11 3 6 11 10 18 10
6 0 1 -7 -11 -16z m-7 -104 c-3 -5 2 -10 11 -10 10 0 15 -3 11 -6 -10 -10 -39
5 -32 16 3 5 8 10 11 10 3 0 2 -4 -1 -10z m60 -51 c-1 -13 4 -28 10 -32 6 -6
5 -7 -3 -5 -8 2 -13 7 -12 12 1 5 -4 13 -12 17 -10 7 -10 9 0 9 6 0 12 5 12
10 0 7 -7 7 -20 0 l-21 -11 21 -29 c12 -17 16 -28 8 -25 -7 3 -18 16 -24 29
-9 20 -8 28 5 40 21 21 36 15 36 -15z m22 -11 c-3 -8 -6 -5 -6 6 -1 11 2 17 5
13 3 -3 4 -12 1 -19z m63 -28 c0 -5 -7 -7 -15 -4 -8 4 -15 8 -15 10 0 2 7 4
15 4 8 0 15 -4 15 -10z m-60 -14 c0 -2 -7 -9 -15 -16 -13 -11 -14 -10 -9 4 5
14 24 23 24 12z m4 -31 c-10 -8 -26 -14 -34 -15 -8 0 -4 6 10 14 34 19 48 20
24 1z m76 -119 c-1 -16 -29 36 -30 54 0 8 7 2 15 -14 8 -15 15 -33 15 -40z
m-20 -7 c0 -5 -8 -9 -17 -8 -11 0 -13 3 -5 6 6 2 9 10 6 15 -4 7 -2 8 4 4 7
-4 12 -11 12 -17z m29 -47 c11 8 18 18 14 21 -3 4 -1 7 5 7 19 0 14 -16 -10
-33 -20 -13 -21 -18 -10 -36 22 -38 12 -35 -16 5 -35 49 -50 77 -24 45 18 -22
21 -23 41 -9z m60 -8 c-14 -17 -29 -18 -29 -3 0 5 5 7 12 3 7 -5 9 -2 5 9 -4
11 -2 14 9 10 11 -4 12 -9 3 -19z m1 -57 c28 -17 77 -87 61 -87 -5 0 -15 14
-23 30 -7 17 -30 42 -50 55 -21 14 -38 33 -37 43 0 14 2 14 10 -4 6 -11 23
-28 39 -37z m-38 -24 c-6 -3 -10 -9 -7 -14 4 -5 -1 -6 -10 -3 -14 6 -14 8 2
19 10 8 20 11 23 8 3 -3 -1 -8 -8 -10z m19 -20 c-12 -20 -14 -14 -5 12 4 9 9
14 11 11 3 -2 0 -13 -6 -23z m19 -18 c-7 -8 -17 -15 -22 -15 -5 0 -2 7 6 16 9
8 16 21 17 27 0 8 2 8 6 -1 3 -7 -1 -19 -7 -27z m35 -15 c3 -5 2 -10 -4 -10
-5 0 -13 5 -16 10 -3 6 -2 10 4 10 5 0 13 -4 16 -10z m-55 -14 c0 -3 -4 -8
-10 -11 -5 -3 -10 -1 -10 4 0 6 5 11 10 11 6 0 10 -2 10 -4z m30 -7 c0 -5 5
-7 12 -3 7 4 8 3 4 -4 -4 -7 -3 -12 3 -12 5 0 12 6 14 13 4 9 6 9 6 -1 1 -7
-6 -15 -14 -18 -8 -4 -12 -11 -9 -16 4 -6 -5 -3 -18 6 -14 9 -28 13 -33 9 -4
-5 -5 -3 -1 4 4 7 14 9 24 6 15 -6 15 -5 3 10 -9 11 -10 17 -2 17 6 0 11 -5
11 -11z m67 -21 c2 -17 0 -19 -7 -8 -5 8 -6 18 -4 22 8 12 10 10 11 -14z m-17
-42 c-14 -14 -22 -2 -14 18 5 14 9 15 15 4 4 -7 4 -17 -1 -22z m-53 -38 c-3
-8 -6 -5 -6 6 -1 11 2 17 5 13 3 -3 4 -12 1 -19z m123 -12 c0 -3 -4 -8 -10
-11 -5 -3 -10 -1 -10 4 0 6 5 11 10 11 6 0 10 -2 10 -4z m-76 -22 c9 -3 16
-11 16 -17 0 -7 -4 -7 -12 1 -17 17 -33 15 -18 -3 7 -9 8 -15 2 -15 -12 0 -23
26 -15 34 8 7 8 7 27 0z m38 -67 c-12 -7 -19 -17 -15 -22 4 -4 2 -5 -5 -1 -17
10 3 36 27 36 12 -1 10 -4 -7 -13z m58 -57 c0 -5 -4 -10 -10 -10 -5 0 -10 5
-10 10 0 6 5 10 10 10 6 0 10 -4 10 -10z m-20 -25 c11 -13 10 -14 -4 -9 -9 3
-16 10 -16 15 0 13 6 11 20 -6z m-15 -24 c-6 -5 -25 10 -25 20 0 5 6 4 14 -3
8 -7 12 -15 11 -17z m35 -51 c0 -5 -4 -10 -10 -10 -5 0 -10 5 -10 10 0 6 5 10
10 10 6 0 10 -4 10 -10z m86 -2 c4 -6 3 -8 -3 -5 -6 4 -14 0 -17 -9 -3 -8 -10
-13 -15 -10 -5 4 -12 1 -14 -4 -4 -7 -5 -6 -3 1 1 6 5 9 9 7 5 -2 13 5 18 15
12 20 15 21 25 5z m-88 -63 c-3 -3 -9 2 -12 12 -6 14 -5 15 5 6 7 -7 10 -15 7
-18z m18 -14 c-4 -5 0 -11 6 -14 7 -2 9 -8 5 -13 -9 -10 -28 16 -21 28 3 4 7
8 10 8 3 0 3 -4 0 -9z m88 -16 c11 -8 16 -15 10 -15 -5 0 -18 7 -28 15 -11 8
-16 15 -10 15 5 0 18 -7 28 -15z m48 -29 c7 4 8 2 4 -4 -4 -6 -13 -9 -21 -5
-8 3 -15 0 -15 -6 0 -6 -5 -11 -12 -11 -6 0 -3 9 8 21 10 11 20 16 22 10 2 -6
9 -8 14 -5z m-62 -23 c0 -3 -6 -3 -12 0 -7 2 -22 0 -33 -5 -19 -9 -19 -8 -2 6
17 13 47 12 47 -1z m113 -23 c-3 -3 -10 3 -17 12 -7 10 -17 14 -21 10 -5 -4
-5 -1 -1 6 6 11 12 10 26 -5 9 -10 15 -20 13 -23z m95 -2 c23 -16 42 -37 41
-46 0 -14 -2 -14 -10 3 -14 27 -75 66 -94 59 -8 -3 -15 -2 -15 3 0 18 35 10
78 -19z m-172 -3 c-17 -17 -36 -12 -36 8 0 8 3 8 9 -1 6 -10 10 -10 21 3 7 8
15 13 18 11 2 -3 -3 -12 -12 -21z m-52 0 c-4 -8 -8 -15 -10 -15 -2 0 -4 7 -4
15 0 8 4 15 10 15 5 0 7 -7 4 -15z m92 -7 c-9 -5 -22 -7 -29 -4 -7 2 -4 5 6 5
10 1 15 5 12 11 -4 6 1 7 11 3 15 -6 15 -7 0 -15z m115 -8 c13 -10 18 -19 12
-20 -7 0 -13 4 -13 8 0 5 -10 14 -22 20 -13 6 -18 11 -12 11 7 1 22 -8 35 -19z
m-45 -8 c-10 -2 -22 0 -28 6 -6 6 0 7 19 4 21 -5 23 -7 9 -10z m199 8 c3 -5 1
-10 -4 -10 -6 0 -11 5 -11 10 0 6 2 10 4 10 3 0 8 -4 11 -10z m4 -23 c13 4 14
3 2 -5 -10 -7 -21 -7 -32 -1 -11 6 -20 5 -24 -1 -3 -5 -12 -10 -18 -10 -7 0
-4 6 5 14 10 7 14 17 10 21 -4 5 4 1 17 -8 13 -8 31 -13 40 -10z m36 -12 c-16
-13 -31 -22 -34 -20 -2 3 9 16 24 30 16 13 31 22 34 20 2 -3 -9 -16 -24 -30z
m65 3 c0 -6 3 -8 6 -5 4 3 16 1 27 -5 17 -9 19 -8 14 6 -4 9 -2 16 3 16 13 0
13 -27 0 -35 -5 -3 -16 -3 -22 2 -13 8 -18 9 -38 12 -5 0 -10 6 -10 11 0 6 5
10 10 10 6 0 10 -5 10 -12z m-119 -25 c13 -15 12 -15 -6 -6 -11 6 -27 8 -35 6
-13 -4 -13 -3 0 6 20 14 25 14 41 -6z m254 -12 c2 -11 0 -21 -6 -21 -5 0 -9 5
-9 11 0 5 -5 7 -11 4 -6 -4 -5 2 2 13 15 24 18 23 24 -7z m-188 -3 c-3 -8 -6
-5 -6 6 -1 11 2 17 5 13 3 -3 4 -12 1 -19z m33 11 c0 -5 5 -7 10 -4 6 3 10 1
10 -4 0 -16 -16 -13 -30 4 -9 10 -9 15 -1 15 6 0 11 -5 11 -11z m107 4 c-9 -2
-15 -9 -12 -14 4 -5 1 -9 -4 -9 -12 0 -14 13 -4 23 3 4 13 6 22 6 13 -1 12 -2
-2 -6z m117 1 c14 -5 13 -9 -2 -32 -15 -23 -15 -25 -1 -20 9 4 20 -2 27 -13 8
-12 8 -19 2 -19 -5 0 -10 5 -10 10 0 6 -6 10 -14 10 -22 0 -29 19 -15 36 10
13 10 17 -2 25 -16 10 -8 12 15 3z m-28 -16 c4 -6 3 -8 -4 -4 -5 3 -13 0 -15
-6 -3 -8 -6 -6 -6 5 -1 19 14 23 25 5z m64 -19 c0 -5 5 -7 10 -4 6 3 10 2 10
-4 0 -19 -16 -19 -28 0 -7 11 -8 19 -2 19 5 0 10 -5 10 -11z m150 -13 c0 -2
-7 -6 -15 -10 -8 -3 -15 -1 -15 4 0 6 7 10 15 10 8 0 15 -2 15 -4z m75 -5 c-3
-2 0 -10 6 -18 9 -9 8 -13 0 -13 -6 0 -11 5 -11 11 0 5 -5 7 -12 3 -7 -4 -8
-3 -4 4 4 7 2 12 -3 12 -6 0 -11 -5 -11 -12 0 -6 -3 -9 -6 -5 -11 10 6 26 26
24 10 -1 17 -3 15 -6z m40 -31 c-10 -11 -22 -20 -26 -20 -4 0 2 11 14 24 12
14 24 23 26 20 2 -2 -4 -13 -14 -24z m-144 3 c13 -15 12 -15 -11 -3 -34 17
-36 20 -18 20 9 0 22 -7 29 -17z m-31 -13 c0 -5 -2 -10 -4 -10 -3 0 -8 5 -11
10 -3 6 -1 10 4 10 6 0 11 -4 11 -10z m190 -14 c0 -2 -6 -9 -14 -15 -11 -9
-16 -9 -22 0 -4 8 -3 9 4 5 7 -4 12 -2 12 3 0 6 5 11 10 11 6 0 10 -2 10 -4z"/>
<path d="M2317 2403 c-4 -3 -7 -154 -7 -335 l0 -328 70 0 70 0 0 335 0 335
-63 0 c-35 0 -67 -3 -70 -7z"/>
<path d="M2616 2171 c-85 -173 -97 -205 -94 -243 l3 -43 147 -3 148 -3 -2 -47
c-2 -97 -6 -92 67 -92 l65 0 0 70 0 70 40 0 c25 0 40 5 41 13 7 105 6 106 -48
101 l-33 -2 0 68 c0 45 -4 69 -12 72 -11 4 -102 3 -118 -1 -3 0 -5 -31 -5 -69
l0 -67 -60 0 c-33 -1 -65 1 -72 3 -7 2 10 46 46 120 32 64 69 140 81 167 12
28 27 58 32 68 8 15 2 17 -60 17 l-68 0 -98 -199z"/>
<path d="M37 2299 c7 -7 15 -10 18 -7 3 3 -2 9 -12 12 -14 6 -15 5 -6 -5z"/>
<path d="M70 2281 c0 -10 19 -25 25 -20 1 2 -3 10 -11 17 -8 7 -14 8 -14 3z"/>
<path d="M37 2265 c-4 -8 -3 -16 1 -19 4 -3 9 4 9 15 2 23 -3 25 -10 4z"/>
<path d="M130 2266 c0 -8 4 -17 9 -20 5 -4 7 3 4 14 -6 23 -13 26 -13 6z"/>
<path d="M55 2230 c-3 -6 1 -7 9 -4 18 7 21 14 7 14 -6 0 -13 -4 -16 -10z"/>
<path d="M91 2223 c-1 -17 16 -25 25 -12 4 7 3 9 -4 5 -5 -3 -13 0 -15 6 -4 9
-6 10 -6 1z"/>
<path d="M135 2221 c-9 -15 15 -25 28 -12 9 9 7 10 -7 5 -13 -5 -17 -4 -12 4
4 7 5 12 2 12 -3 0 -7 -4 -11 -9z"/>
<path d="M3114 2219 c-8 -13 -2 -326 7 -360 25 -98 120 -145 228 -113 24 7 57
25 73 41 19 18 29 22 28 13 -8 -56 -4 -60 68 -60 l67 0 0 242 0 242 -50 1
c-91 1 -88 7 -89 -151 -2 -150 -10 -179 -60 -202 -33 -15 -86 -6 -111 18 -18
19 -20 35 -23 175 -2 85 -6 155 -10 156 -43 4 -125 3 -128 -2z"/>
<path d="M70 2215 c1 -21 31 -49 54 -50 13 0 22 3 19 8 -3 4 -12 7 -21 5 -10
-2 -25 7 -34 22 -10 14 -18 21 -18 15z"/>
<path d="M150 2186 c0 -3 9 -10 20 -16 11 -6 20 -8 20 -6 0 3 -9 10 -20 16
-11 6 -20 8 -20 6z"/>
<path d="M80 2156 c0 -2 8 -10 18 -17 15 -13 16 -12 3 4 -13 16 -21 21 -21 13z"/>
<path d="M120 2150 c0 -5 5 -10 11 -10 5 0 7 5 4 10 -3 6 -8 10 -11 10 -2 0
-4 -4 -4 -10z"/>
<path d="M156 2143 c-6 -14 -5 -15 5 -6 7 7 10 15 7 18 -3 3 -9 -2 -12 -12z"/>
<path d="M174 2125 c-4 -8 -9 -13 -13 -11 -4 3 -8 -5 -8 -17 -2 -18 0 -19 8
-7 20 31 30 50 24 50 -3 0 -8 -7 -11 -15z"/>
<path d="M195 2121 c-3 -5 -2 -12 3 -15 5 -3 9 1 9 9 0 17 -3 19 -12 6z"/>
<path d="M115 2110 c3 -6 1 -10 -6 -10 -7 0 -10 -3 -6 -6 3 -3 13 -2 22 4 16
8 16 9 1 15 -10 4 -15 3 -11 -3z"/>
<path d="M176 2092 c-7 -11 -2 -40 9 -49 4 -4 5 -2 1 5 -4 6 -2 12 3 12 6 0
11 5 11 11 0 5 -5 7 -12 3 -8 -5 -9 -2 -5 9 7 18 2 23 -7 9z"/>
<path d="M140 2061 c0 -7 -5 -9 -12 -5 -7 5 -8 3 -3 -5 5 -9 10 -10 18 -2 6 6
8 14 4 18 -4 3 -7 1 -7 -6z"/>
<path d="M230 2061 c0 -7 -5 -9 -12 -5 -7 5 -8 3 -3 -5 5 -9 10 -10 18 -2 6 6
8 14 4 18 -4 3 -7 1 -7 -6z"/>
<path d="M145 2029 c-11 -16 -1 -19 13 -3 7 8 8 14 3 14 -5 0 -13 -5 -16 -11z"/>
<path d="M185 2027 c-14 -11 -15 -16 -5 -22 9 -5 11 -4 6 3 -7 11 6 17 27 13
5 -1 6 3 2 9 -8 13 -8 13 -30 -3z"/>
<path d="M196 1995 c-3 -8 -1 -15 4 -15 6 0 10 7 10 15 0 8 -2 15 -4 15 -2 0
-6 -7 -10 -15z"/>
<path d="M150 1989 c0 -5 5 -7 10 -4 6 3 10 8 10 11 0 2 -4 4 -10 4 -5 0 -10
-5 -10 -11z"/>
<path d="M240 1986 c0 -20 17 -29 26 -15 5 8 3 9 -6 4 -10 -6 -12 -4 -7 8 3
10 2 17 -3 17 -6 0 -10 -6 -10 -14z"/>
<path d="M215 1971 c-6 -11 13 -26 22 -17 4 3 1 6 -6 6 -7 0 -9 5 -6 10 3 6 4
10 1 10 -3 0 -7 -4 -11 -9z"/>
<path d="M273 1953 c4 -6 2 -13 -5 -15 -8 -3 -6 -6 4 -10 17 -7 19 15 3 29 -4
4 -5 3 -2 -4z"/>
<path d="M201 1943 c-1 -17 16 -25 25 -12 4 7 3 9 -4 5 -5 -3 -13 0 -15 6 -4
9 -6 10 -6 1z"/>
<path d="M250 1910 c0 -5 5 -10 10 -10 6 0 10 5 10 10 0 6 -4 10 -10 10 -5 0
-10 -4 -10 -10z"/>
<path d="M230 1890 c8 -5 20 -10 25 -10 6 0 3 5 -5 10 -8 5 -19 10 -25 10 -5
0 -3 -5 5 -10z"/>
<path d="M279 1898 c-9 -30 -6 -37 12 -28 23 13 25 22 2 13 -11 -4 -14 -3 -9
5 4 7 5 12 2 12 -3 0 -6 -1 -7 -2z"/>
<path d="M210 1869 c0 -5 5 -7 10 -4 6 3 10 8 10 11 0 2 -4 4 -10 4 -5 0 -10
-5 -10 -11z"/>
<path d="M222 1851 c-9 -5 -4 -8 16 -7 17 1 28 4 25 9 -6 9 -25 9 -41 -2z"/>
<path d="M298 1833 c4 -19 2 -24 -8 -18 -9 5 -11 4 -6 -4 4 -6 12 -9 17 -6 11
8 12 42 0 49 -4 3 -6 -6 -3 -21z"/>
<path d="M250 1826 c14 -18 13 -19 -2 -13 -10 3 -18 2 -18 -3 0 -12 27 -13 34
-1 3 5 -2 15 -12 22 -16 13 -16 13 -2 -5z"/>
<path d="M311 1796 c-9 -15 -19 -22 -31 -19 -10 3 -20 1 -23 -4 -3 -5 6 -8 19
-8 22 1 62 40 52 51 -3 2 -10 -7 -17 -20z"/>
<path d="M340 1790 c0 -5 5 -10 11 -10 5 0 7 5 4 10 -3 6 -8 10 -11 10 -2 0
-4 -4 -4 -10z"/>
<path d="M316 1763 c-6 -14 -5 -15 5 -6 7 7 10 15 7 18 -3 3 -9 -2 -12 -12z"/>
<path d="M360 1764 c0 -5 7 -18 15 -28 8 -11 15 -16 15 -10 0 5 -7 18 -15 28
-8 11 -15 16 -15 10z"/>
<path d="M267 1741 c-4 -17 -3 -21 5 -13 5 5 8 16 6 23 -3 8 -7 3 -11 -10z"/>
<path d="M335 1749 c-4 -6 -5 -12 -2 -15 2 -3 7 2 10 11 7 17 1 20 -8 4z"/>
<path d="M350 1730 c0 -5 5 -10 11 -10 5 0 7 5 4 10 -3 6 -8 10 -11 10 -2 0
-4 -4 -4 -10z"/>
<path d="M331 1704 c0 -11 3 -14 6 -6 3 7 2 16 -1 19 -3 4 -6 -2 -5 -13z"/>
<path d="M350 1690 c0 -5 7 -7 15 -4 8 4 15 8 15 10 0 2 -7 4 -15 4 -8 0 -15
-4 -15 -10z"/>
<path d="M288 1673 c6 -2 9 -10 6 -15 -4 -7 -2 -8 5 -4 13 9 5 26 -12 25 -9 0
-8 -2 1 -6z"/>
<path d="M320 1660 c-6 -11 -8 -20 -6 -20 3 0 10 9 16 20 6 11 8 20 6 20 -3 0
-10 -9 -16 -20z"/>
<path d="M359 1663 c-13 -15 -12 -15 9 -4 23 12 28 21 13 21 -5 0 -15 -7 -22
-17z"/>
<path d="M395 1659 c-4 -6 -5 -12 -2 -15 2 -3 7 2 10 11 7 17 1 20 -8 4z"/>
<path d="M410 1641 c0 -10 19 -25 25 -20 1 2 -3 10 -11 17 -8 7 -14 8 -14 3z"/>
<path d="M330 1630 c0 -5 5 -10 10 -10 6 0 10 5 10 10 0 6 -4 10 -10 10 -5 0
-10 -4 -10 -10z"/>
<path d="M365 1630 c3 -5 8 -10 11 -10 2 0 4 5 4 10 0 6 -5 10 -11 10 -5 0 -7
-4 -4 -10z"/>
<path d="M390 1610 c0 -5 5 -10 10 -10 6 0 10 5 10 10 0 6 -4 10 -10 10 -5 0
-10 -4 -10 -10z"/>
<path d="M320 1601 c0 -6 4 -13 10 -16 6 -3 7 1 4 9 -7 18 -14 21 -14 7z"/>
<path d="M364 1596 c11 -9 24 -16 30 -16 12 0 7 5 -24 19 -24 11 -24 11 -6 -3z"/>
<path d="M434 1588 c-4 -7 -4 -10 1 -6 4 4 14 0 22 -10 13 -15 13 -15 3 6 -12
25 -16 27 -26 10z"/>
<path d="M412 1575 c4 -4 0 -14 -10 -21 -9 -7 -15 -14 -12 -17 3 -2 13 4 23
13 15 14 16 20 5 26 -7 4 -10 4 -6 -1z"/>
<path d="M640 1569 c0 -5 5 -7 10 -4 6 3 10 8 10 11 0 2 -4 4 -10 4 -5 0 -10
-5 -10 -11z"/>
<path d="M350 1545 c0 -8 2 -15 4 -15 2 0 6 7 10 15 3 8 1 15 -4 15 -6 0 -10
-7 -10 -15z"/>
<path d="M434 1545 c-4 -8 -11 -12 -17 -8 -6 3 -7 1 -3 -5 10 -16 14 -15 26 8
6 11 8 20 5 20 -3 0 -8 -7 -11 -15z"/>
<path d="M456 1528 c3 -5 10 -6 15 -3 13 9 11 12 -6 12 -8 0 -12 -4 -9 -9z"/>
<path d="M400 1490 c-8 -5 -11 -13 -6 -17 5 -4 11 -2 13 5 3 6 10 9 15 6 7 -4
8 -2 4 4 -9 14 -7 14 -26 2z"/>
<path d="M440 1478 c-10 -21 -10 -21 3 -6 8 10 18 14 22 10 5 -4 5 -1 1 6 -10
17 -14 15 -26 -10z"/>
<path d="M465 1467 c-15 -12 -16 -15 -4 -22 8 -5 10 -4 6 0 -4 5 3 15 15 22
13 7 18 12 12 13 -5 0 -18 -6 -29 -13z"/>
<path d="M417 1443 c6 -25 18 -30 29 -10 4 6 4 9 -1 5 -4 -4 -14 0 -21 10 -12
15 -12 15 -7 -5z"/>
<path d="M497 1449 c7 -7 15 -10 18 -7 3 3 -2 9 -12 12 -14 6 -15 5 -6 -5z"/>
<path d="M474 1429 c-3 -6 -1 -16 5 -22 9 -9 11 -8 5 6 -5 13 -2 16 10 11 9
-3 16 -4 16 -1 0 11 -30 16 -36 6z"/>
<path d="M510 1399 c0 -5 5 -7 10 -4 6 3 10 8 10 11 0 2 -4 4 -10 4 -5 0 -10
-5 -10 -11z"/>
<path d="M435 1390 c-2 -3 5 -7 16 -7 10 -1 19 2 19 6 0 9 -29 10 -35 1z"/>
<path d="M440 1361 c0 -10 19 -25 25 -20 1 2 -3 10 -11 17 -8 7 -14 8 -14 3z"/>
<path d="M470 1366 c0 -3 9 -10 20 -16 11 -6 20 -8 20 -6 0 3 -9 10 -20 16
-11 6 -20 8 -20 6z"/>
<path d="M531 1354 c0 -11 3 -14 6 -6 3 7 2 16 -1 19 -3 4 -6 -2 -5 -13z"/>
<path d="M470 1330 c-13 -8 -12 -10 3 -10 9 0 17 5 17 10 0 12 -1 12 -20 0z"/>
<path d="M550 1332 c0 -5 7 -9 15 -9 8 0 12 4 9 9 -3 4 -9 8 -15 8 -5 0 -9 -4
-9 -8z"/>
<path d="M496 1315 c-3 -8 -1 -15 4 -15 6 0 10 7 10 15 0 8 -2 15 -4 15 -2 0
-6 -7 -10 -15z"/>
<path d="M530 1315 c0 -8 4 -15 10 -15 5 0 7 7 4 15 -4 8 -8 15 -10 15 -2 0
-4 -7 -4 -15z"/>
<path d="M555 1291 c-3 -5 0 -13 6 -17 8 -5 9 -3 4 6 -6 10 -4 12 9 7 10 -4
15 -3 11 3 -8 13 -22 13 -30 1z"/>
<path d="M466 1274 c-5 -14 -4 -15 9 -4 17 14 19 20 6 20 -5 0 -12 -7 -15 -16z"/>
<path d="M508 1283 c6 -2 18 -2 25 0 6 3 1 5 -13 5 -14 0 -19 -2 -12 -5z"/>
<path d="M578 1248 c5 -5 16 -8 23 -6 8 3 3 7 -10 11 -17 4 -21 3 -13 -5z"/>
<path d="M480 1241 c0 -6 4 -13 10 -16 6 -3 7 1 4 9 -7 18 -14 21 -14 7z"/>
<path d="M510 1239 c0 -5 5 -7 10 -4 6 3 10 8 10 11 0 2 -4 4 -10 4 -5 0 -10
-5 -10 -11z"/>
<path d="M547 1238 c-3 -8 5 -14 20 -14 13 -1 23 -1 21 0 -2 1 -10 7 -19 14
-13 10 -18 10 -22 0z"/>
<path d="M510 1210 c0 -5 5 -10 10 -10 6 0 10 5 10 10 0 6 -4 10 -10 10 -5 0
-10 -4 -10 -10z"/>
<path d="M595 1210 c-9 -14 4 -32 17 -24 8 5 9 1 5 -10 -4 -9 -3 -15 2 -11 6
3 9 14 8 25 -1 15 -4 17 -16 7 -12 -10 -14 -9 -8 6 7 18 2 23 -8 7z"/>
<path d="M550 1200 c-9 -6 -10 -10 -3 -10 6 0 15 5 18 10 8 12 4 12 -15 0z"/>
<path d="M575 1180 c6 -10 3 -12 -14 -7 -15 4 -24 -1 -32 -15 -12 -23 3 -49
16 -27 6 8 4 10 -5 4 -10 -6 -12 -4 -7 9 4 10 7 19 7 21 0 2 8 1 19 -2 22 -6
37 12 20 23 -8 5 -9 3 -4 -6z"/>
<path d="M624 1146 c-3 -8 -13 -12 -24 -9 -10 3 -20 1 -23 -4 -3 -5 6 -8 21
-7 14 0 28 6 30 12 2 7 9 9 14 6 7 -4 8 -2 4 4 -9 16 -15 15 -22 -2z"/>
<path d="M650 1119 c0 -5 -4 -8 -9 -4 -6 3 -15 -5 -21 -17 -10 -21 -10 -22 4
-5 8 10 18 18 22 17 5 -1 10 3 12 9 2 6 1 11 -2 11 -3 0 -6 -5 -6 -11z"/>
<path d="M550 1110 c0 -5 5 -10 11 -10 5 0 7 5 4 10 -3 6 -8 10 -11 10 -2 0
-4 -4 -4 -10z"/>
<path d="M570 1090 c-9 -6 -10 -10 -3 -10 6 0 15 5 18 10 8 12 4 12 -15 0z"/>
<path d="M655 1091 c-3 -6 4 -15 16 -21 12 -7 19 -8 15 -2 -3 6 0 13 6 16 7 3
2 3 -11 0 -16 -4 -21 -3 -17 5 4 6 5 11 2 11 -3 0 -7 -4 -11 -9z"/>
<path d="M602 1067 c10 -8 14 -18 10 -22 -4 -5 -1 -5 6 -1 17 10 15 14 -10 26
-21 10 -21 10 -6 -3z"/>
<path d="M715 1071 c3 -2 -3 -11 -13 -19 -9 -8 -4 -6 12 3 26 16 28 16 23 1
-9 -22 0 -20 12 2 8 15 6 18 -14 18 -14 0 -22 -2 -20 -5z"/>
<path d="M1744 1061 c3 -5 -1 -12 -10 -15 -15 -6 -15 -8 1 -26 19 -20 11 -45
-11 -36 -8 3 -14 0 -14 -5 0 -7 11 -9 25 -7 14 3 25 1 25 -3 0 -5 4 -9 9 -9 5
0 8 8 7 17 -1 12 8 18 29 20 20 1 25 -1 16 -6 -8 -5 -21 -7 -29 -4 -12 5 -12
2 -3 -16 7 -12 16 -19 20 -17 4 3 24 1 45 -5 42 -12 63 -4 45 17 -7 9 -8 14
-1 14 6 0 12 -6 15 -12 3 -10 7 -10 20 0 9 8 22 12 28 10 7 -2 -2 -10 -19 -17
-38 -16 -41 -28 -7 -28 13 0 23 4 22 10 -4 17 18 18 38 2 19 -15 19 -16 -3 -5
-26 13 -35 10 -24 -7 6 -9 82 -26 82 -18 0 2 -5 16 -12 32 -6 15 -10 32 -9 36
1 5 -8 11 -19 14 -11 3 -20 9 -20 13 0 4 -13 10 -30 12 -16 3 -30 1 -30 -4 0
-4 -5 -8 -11 -8 -5 0 -7 5 -4 10 3 6 3 10 -2 11 -4 0 -17 3 -28 5 -11 3 -32 6
-46 8 -14 1 -31 6 -38 11 -8 4 -17 2 -22 -6 -5 -8 -9 -9 -9 -3 0 7 -7 15 -16
18 -8 3 -13 2 -10 -3z m16 -31 c0 -5 -2 -10 -4 -10 -3 0 -8 5 -11 10 -3 6 -1
10 4 10 6 0 11 -4 11 -10z m83 -11 c4 -3 -6 -6 -22 -6 -27 0 -28 2 -13 13 9 7
19 9 22 6 3 -4 9 -9 13 -13z m-72 -12 c-10 -9 -11 -8 -5 6 3 10 9 15 12 12 3
-3 0 -11 -7 -18z m100 -31 c-15 -15 -22 -16 -37 -6 -14 9 -15 10 -2 6 21 -6
56 18 40 28 -7 4 -12 12 -12 19 0 6 6 2 14 -9 13 -17 13 -21 -3 -38z m111 15
c9 -15 15 -17 25 -9 10 8 12 7 7 -6 -8 -22 -19 -20 -37 7 -13 18 -18 20 -34
10 -14 -7 -24 -8 -34 -1 -11 8 -11 9 3 4 10 -3 20 -1 23 4 10 16 34 11 47 -9z
m45 -53 c-3 -8 -6 -5 -6 6 -1 11 2 17 5 13 3 -3 4 -12 1 -19z"/>
<path d="M574 1049 c-4 -7 -3 -9 4 -5 5 3 13 0 15 -6 4 -9 6 -10 6 -1 1 17
-16 25 -25 12z"/>
<path d="M654 1045 c-4 -8 -11 -12 -17 -8 -6 3 -7 1 -3 -5 11 -18 23 -14 29 8
6 23 -1 27 -9 5z"/>
<path d="M756 1043 c-6 -14 -5 -15 5 -6 7 7 10 15 7 18 -3 3 -9 -2 -12 -12z"/>
<path d="M861 1040 c16 -33 16 -33 23 -13 4 9 4 14 0 10 -4 -4 -13 1 -21 11
-12 15 -13 14 -2 -8z"/>
<path d="M673 1025 c0 -8 4 -12 9 -9 5 3 6 10 3 15 -9 13 -12 11 -12 -6z"/>
<path d="M830 1030 c-9 -6 -10 -10 -3 -10 6 0 15 5 18 10 8 12 4 12 -15 0z"/>
<path d="M934 1024 c1 -8 6 -17 11 -21 4 -4 5 -2 1 5 -4 6 -2 12 3 12 6 0 11
4 11 8 0 5 -6 9 -14 9 -7 0 -13 -6 -12 -13z"/>
<path d="M735 1021 c5 -9 0 -12 -15 -9 -13 2 -24 -3 -26 -10 -1 -7 0 -8 2 -3
3 5 13 7 23 4 22 -6 37 12 20 23 -8 5 -9 3 -4 -5z"/>
<path d="M780 1021 c0 -7 -5 -9 -12 -5 -7 5 -8 3 -3 -5 5 -9 10 -10 18 -2 6 6
8 14 4 18 -4 3 -7 1 -7 -6z"/>
<path d="M1574 1016 c-18 -14 -18 -15 3 -13 12 1 25 7 27 14 7 17 -6 16 -30
-1z"/>
<path d="M1613 1015 c-9 -25 4 -29 17 -6 7 15 7 21 0 21 -6 0 -13 -7 -17 -15z"/>
<path d="M615 1010 c3 -5 8 -10 11 -10 2 0 4 5 4 10 0 6 -5 10 -11 10 -5 0 -7
-4 -4 -10z"/>
<path d="M977 1009 c7 -7 15 -10 18 -7 3 3 -2 9 -12 12 -14 6 -15 5 -6 -5z"/>
<path d="M1010 1009 c0 -5 5 -7 10 -4 6 3 10 8 10 11 0 2 -4 4 -10 4 -5 0 -10
-5 -10 -11z"/>
<path d="M1036 1003 c-6 -14 -5 -15 5 -6 7 7 10 15 7 18 -3 3 -9 -2 -12 -12z"/>
<path d="M911 1003 c4 -21 -2 -34 -13 -27 -7 4 -8 3 -4 -4 10 -16 14 -15 26 7
7 14 7 22 0 26 -6 4 -10 3 -9 -2z"/>
<path d="M750 991 c0 -6 4 -13 10 -16 6 -3 7 1 4 9 -7 18 -14 21 -14 7z"/>
<path d="M785 990 c-3 -6 1 -7 9 -4 18 7 21 14 7 14 -6 0 -13 -4 -16 -10z"/>
<path d="M827 988 c-7 -4 5 -6 26 -4 21 2 40 6 43 9 8 8 -56 3 -69 -5z"/>
<path d="M954 986 c-3 -9 -11 -13 -17 -9 -6 4 -7 1 -2 -6 6 -10 11 -9 23 3 9
8 13 19 9 22 -4 4 -9 -1 -13 -10z"/>
<path d="M1151 987 c-1 -11 -6 -15 -13 -11 -7 5 -8 3 -3 -5 10 -16 29 2 22 21
-4 8 -6 7 -6 -5z"/>
<path d="M1033 965 c0 -8 4 -12 9 -9 4 3 8 9 8 15 0 5 -4 9 -8 9 -5 0 -9 -7
-9 -15z"/>
<path d="M1177 969 c7 -7 15 -10 18 -7 3 3 -2 9 -12 12 -14 6 -15 5 -6 -5z"/>
<path d="M986 954 c-4 -9 -4 -19 -1 -22 3 -3 5 0 5 7 0 7 4 9 10 6 6 -3 7 1 4
9 -8 20 -10 20 -18 0z"/>
<path d="M1113 963 c4 -6 1 -13 -5 -16 -7 -2 0 -4 15 -4 15 0 27 0 25 1 -2 1
-12 8 -22 16 -11 8 -17 10 -13 3z"/>
<path d="M1252 954 c-7 -8 -8 -14 -3 -14 10 0 25 19 20 25 -2 1 -10 -3 -17
-11z"/>
<path d="M1282 950 c-18 -29 -15 -38 4 -12 9 13 14 25 12 27 -2 2 -9 -5 -16
-15z"/>
<path d="M1167 949 c7 -7 15 -10 18 -7 3 3 -2 9 -12 12 -14 6 -15 5 -6 -5z"/>
<path d="M1192 926 c-9 -19 -8 -24 3 -22 8 1 18 6 22 11 4 4 2 5 -6 0 -10 -6
-12 -2 -6 14 9 28 1 27 -13 -3z"/>
<path d="M1390 940 c-9 -6 -10 -10 -3 -10 6 0 15 5 18 10 8 12 4 12 -15 0z"/>
<path d="M1284 912 c-9 -13 -14 -26 -11 -28 2 -2 9 7 16 20 9 15 19 22 31 19
10 -3 20 -1 23 4 13 21 -45 6 -59 -15z"/>
<path d="M1112 921 c-11 -7 -11 -9 0 -14 9 -3 15 1 15 9 0 8 -1 14 -1 14 -1 0
-7 -4 -14 -9z"/>
<path d="M1150 915 c0 -8 4 -15 8 -15 5 0 9 7 9 15 0 8 -4 15 -9 15 -4 0 -8
-7 -8 -15z"/>
<path d="M1235 911 c3 -5 0 -11 -7 -13 -7 -3 -5 -7 6 -11 9 -4 15 -3 11 2 -3
5 0 11 7 13 7 3 5 7 -6 11 -9 4 -15 3 -11 -2z"/>
<path d="M1376 906 c3 -8 -4 -12 -17 -12 -13 1 -23 -6 -24 -15 -2 -9 3 -16 11
-16 11 0 11 3 1 15 -10 13 -9 15 11 10 15 -4 25 -2 29 8 3 8 10 11 17 7 6 -3
7 -2 3 2 -12 14 -36 14 -31 1z"/>
<path d="M1507 906 c5 -15 3 -17 -8 -11 -8 4 -11 4 -6 0 10 -12 45 -16 51 -7
3 4 0 14 -6 22 -8 12 -9 12 -4 -2 3 -10 3 -18 -1 -18 -3 0 -12 8 -19 18 -13
16 -14 16 -7 -2z"/>
<path d="M1470 901 c0 -7 -5 -9 -12 -5 -7 5 -8 3 -3 -5 5 -9 10 -10 18 -2 6 6
8 14 4 18 -4 3 -7 1 -7 -6z"/>
<path d="M1573 903 c4 -6 0 -14 -9 -17 -8 -3 -13 -10 -10 -15 4 -5 1 -11 -6
-13 -6 -2 -12 -12 -14 -21 -1 -9 2 -15 7 -11 5 3 7 9 4 14 -3 4 2 11 11 14 9
4 14 9 11 13 -4 3 1 11 10 18 13 9 13 14 3 20 -8 5 -11 4 -7 -2z"/>
<path d="M1295 889 c-4 -6 -4 -13 -1 -16 3 -4 6 -1 6 6 0 7 5 9 12 5 7 -4 8
-3 4 4 -9 15 -13 15 -21 1z"/>
<path d="M1414 886 c-3 -9 -9 -14 -13 -11 -4 2 -8 -3 -8 -12 0 -13 4 -12 17 5
16 19 18 19 33 4 9 -9 18 -14 21 -11 2 2 -7 12 -20 22 -21 16 -25 16 -30 3z"/>
<path d="M1620 882 c9 -19 30 -23 30 -5 0 4 -3 3 -7 0 -3 -4 -12 1 -20 11 -13
15 -13 15 -3 -6z"/>
<path d="M1487 869 c7 -7 15 -10 18 -7 3 3 -2 9 -12 12 -14 6 -15 5 -6 -5z"/>
<path d="M1675 870 c-3 -5 -1 -10 4 -10 6 0 11 5 11 10 0 6 -2 10 -4 10 -3 0
-8 -4 -11 -10z"/>
<path d="M1773 863 c4 -6 0 -14 -9 -17 -9 -4 -14 -9 -11 -13 4 -3 0 -11 -8
-17 -11 -8 -12 -15 -4 -26 9 -13 10 -13 6 2 -4 9 1 19 10 22 9 4 13 9 10 13
-4 3 1 11 10 18 13 9 13 14 3 20 -8 5 -11 4 -7 -2z"/>
<path d="M1575 851 c-3 -5 0 -13 6 -17 7 -4 9 -3 5 4 -3 5 0 13 6 15 9 4 10 6
1 6 -6 1 -14 -3 -18 -8z"/>
<path d="M1610 856 c0 -3 9 -10 20 -16 11 -6 20 -8 20 -6 0 3 -9 10 -20 16
-11 6 -20 8 -20 6z"/>
<path d="M1660 843 c6 -13 15 -23 20 -23 5 0 14 10 20 23 11 21 10 21 -4 3
-16 -20 -16 -20 -32 0 -14 18 -15 18 -4 -3z"/>
<path d="M1725 847 c-15 -12 -16 -15 -4 -22 8 -5 11 -5 7 0 -4 4 0 14 10 21
23 18 11 18 -13 1z"/>
<path d="M1475 840 c3 -5 8 -10 11 -10 2 0 4 5 4 10 0 6 -5 10 -11 10 -5 0 -7
-4 -4 -10z"/>
<path d="M1829 831 c-7 -10 -20 -16 -29 -14 -22 6 -32 -9 -18 -27 8 -12 9 -11
4 4 -5 15 -2 17 13 13 14 -3 25 3 36 19 8 13 13 24 10 24 -3 0 -10 -8 -16 -19z"/>
<path d="M1607 829 c7 -7 15 -10 18 -7 3 3 -2 9 -12 12 -14 6 -15 5 -6 -5z"/>
<path d="M1860 830 c0 -5 5 -10 11 -10 5 0 7 5 4 10 -3 6 -8 10 -11 10 -2 0
-4 -4 -4 -10z"/>
<path d="M1650 810 c0 -5 5 -10 11 -10 5 0 7 5 4 10 -3 6 -8 10 -11 10 -2 0
-4 -4 -4 -10z"/>
<path d="M1695 809 c-4 -6 -5 -12 -2 -15 2 -3 7 2 10 11 7 17 1 20 -8 4z"/>
<path d="M1832 800 c-7 -11 -8 -20 -3 -20 9 0 24 30 18 36 -1 2 -8 -6 -15 -16z"/>
<path d="M1881 803 c-1 -6 -4 -20 -7 -30 -5 -17 -5 -17 6 0 6 10 9 23 6 30 -3
9 -5 9 -5 0z"/>
</g>
</svg>
